<svg width="17" height="15" viewBox="0 0 17 15" fill="none" xmlns="http://www.w3.org/2000/svg">
<path fill-rule="evenodd" clip-rule="evenodd" d="M15.1667 0.833328H1.83332C0.916656 0.833328 0.17499 1.58333 0.17499 2.49999L0.166656 12.5C0.166656 13.4167 0.916656 14.1667 1.83332 14.1667H15.1667C16.0833 14.1667 16.8333 13.4167 16.8333 12.5V2.49999C16.8333 1.58333 16.0833 0.833328 15.1667 0.833328ZM14.8333 4.37499L8.94166 8.05833C8.67499 8.22499 8.32499 8.22499 8.05832 8.05833L2.16666 4.37499C1.95832 4.24166 1.83332 4.01666 1.83332 3.775C1.83332 3.21666 2.44166 2.88333 2.91666 3.175L8.49999 6.66666L14.0833 3.175C14.5583 2.88333 15.1667 3.21666 15.1667 3.775C15.1667 4.01666 15.0417 4.24166 14.8333 4.37499Z" fill="white"/>
</svg>
