<svg width="17" height="17" viewBox="0 0 17 17" fill="none" xmlns="http://www.w3.org/2000/svg">
<path fill-rule="evenodd" clip-rule="evenodd" d="M8.49999 0.166672C3.89999 0.166672 0.166656 3.90001 0.166656 8.5C0.166656 13.1 3.89999 16.8333 8.49999 16.8333C13.1 16.8333 16.8333 13.1 16.8333 8.5C16.8333 3.90001 13.1 0.166672 8.49999 0.166672ZM7.66666 15.1083C4.37499 14.7 1.83332 11.9 1.83332 8.5C1.83332 7.98334 1.89999 7.49167 2.00832 7.00834L5.99999 11V11.8333C5.99999 12.75 6.74999 13.5 7.66666 13.5V15.1083ZM13.4167 12.9917C13.2 12.3167 12.5833 11.8333 11.8333 11.8333H11V9.33334C11 8.875 10.625 8.5 10.1667 8.5H5.16666V6.83334H6.83332C7.29166 6.83334 7.66666 6.45834 7.66666 6.00001V4.33334H9.33332C10.25 4.33334 11 3.58334 11 2.66667V2.32501C13.4417 3.31667 15.1667 5.70834 15.1667 8.5C15.1667 10.2333 14.5 11.8083 13.4167 12.9917Z" fill="white"/>
</svg>
